<svg xmlns="http://www.w3.org/2000/svg" viewBox="0 0 1200 900" role="img" aria-label="Loaded fries">
  <defs>
    <linearGradient id="surface" x1="0" x2="1" y1="0" y2="1">
      <stop offset="0" stop-color="#f8ead5"/>
      <stop offset="1" stop-color="#d8b076"/>
    </linearGradient>
    <filter id="drop" x="-20%" y="-20%" width="140%" height="140%">
      <feDropShadow dx="0" dy="24" stdDeviation="24" flood-color="#5b3922" flood-opacity=".24"/>
    </filter>
  </defs>
  <rect width="1200" height="900" fill="url(#surface)"/>
  <path d="M0 638c216-75 420-70 612 14 205 90 401 105 588 45v203H0z" fill="#fff8ee" opacity=".54"/>
  <g filter="url(#drop)">
    <ellipse cx="600" cy="680" rx="365" ry="82" fill="#7a4b2f" opacity=".22"/>
    <path d="M350 364h500l-66 305c-13 60-66 98-134 98h-100c-68 0-121-38-134-98z" fill="#f4f0e6"/>
    <path d="M392 398h416l-52 252c-9 45-45 72-93 72H537c-48 0-84-27-93-72z" fill="#dfd5c3"/>
    <g stroke-linecap="round">
      <path d="M456 250l44 356" stroke="#e9b84e" stroke-width="44"/>
      <path d="M544 221l21 396" stroke="#f4c85e" stroke-width="43"/>
      <path d="M642 242l-32 375" stroke="#e5a841" stroke-width="45"/>
      <path d="M735 276l-74 337" stroke="#f2c35a" stroke-width="42"/>
      <path d="M392 318l103 307" stroke="#e2a33c" stroke-width="41"/>
      <path d="M808 342l-133 276" stroke="#efbd52" stroke-width="40"/>
    </g>
    <path d="M423 530c112 54 226 58 342 10" fill="none" stroke="#f6d15d" stroke-width="24" stroke-linecap="round"/>
    <path d="M469 594c70 28 154 29 251 2" fill="none" stroke="#8a3d28" stroke-width="16" stroke-linecap="round" opacity=".45"/>
    <circle cx="520" cy="548" r="18" fill="#4d8b72"/>
    <circle cx="676" cy="570" r="16" fill="#4d8b72"/>
    <circle cx="612" cy="624" r="14" fill="#d97856"/>
  </g>
</svg>
