<svg xmlns="http://www.w3.org/2000/svg" viewBox="0 0 1200 900" role="img" aria-label="Hot honey biscuit">
  <defs>
    <linearGradient id="surface" x1="0" x2="1" y1="0" y2="1">
      <stop offset="0" stop-color="#efe2cf"/>
      <stop offset="1" stop-color="#c89260"/>
    </linearGradient>
    <filter id="soft" x="-20%" y="-20%" width="140%" height="140%">
      <feDropShadow dx="0" dy="22" stdDeviation="24" flood-color="#53311f" flood-opacity=".24"/>
    </filter>
  </defs>
  <rect width="1200" height="900" fill="url(#surface)"/>
  <path d="M0 610c220-94 447-86 682 23 187 86 359 102 518 48v219H0z" fill="#f8eee0" opacity=".58"/>
  <g filter="url(#soft)">
    <ellipse cx="620" cy="560" rx="370" ry="108" fill="#805738" opacity=".22"/>
    <path d="M360 375c52-96 162-139 289-118 128 20 219 89 231 190 12 98-69 177-210 193-142 16-279-39-322-132-20-43-16-88 12-133z" fill="#c97937"/>
    <path d="M398 365c61-73 169-97 281-69 95 24 166 79 178 151 12 73-54 128-165 139-121 13-240-35-279-108-20-38-25-74-15-113z" fill="#e6ae63"/>
    <path d="M411 460c82 37 190 48 309 31 67-10 115-27 145-51 13 81-60 141-189 155-122 13-241-33-278-108-5-10-1-20 13-27z" fill="#8f4d25"/>
    <path d="M455 315c49-31 120-43 196-30 81 13 145 48 179 94-95-30-191-35-285-16-63 13-111 31-144 55-6-37 10-73 54-103z" fill="#f2c87b"/>
    <path d="M533 427c72-19 145-14 219 16" fill="none" stroke="#fff2d1" stroke-width="22" stroke-linecap="round" opacity=".55"/>
    <path d="M494 505c93 35 195 37 306 5" fill="none" stroke="#5f331e" stroke-width="12" stroke-linecap="round" opacity=".25"/>
  </g>
  <g>
    <path d="M791 323c48 34 78 76 87 127" fill="none" stroke="#e8a93a" stroke-width="15" stroke-linecap="round"/>
    <path d="M846 402c49 22 83 54 103 97" fill="none" stroke="#e8a93a" stroke-width="12" stroke-linecap="round"/>
    <circle cx="879" cy="474" r="18" fill="#e8a93a"/>
    <circle cx="902" cy="523" r="12" fill="#e8a93a"/>
  </g>
  <circle cx="250" cy="225" r="82" fill="#4d8b72" opacity=".12"/>
  <circle cx="1000" cy="185" r="116" fill="#fff" opacity=".16"/>
</svg>
