<svg xmlns="http://www.w3.org/2000/svg" viewBox="0 0 1200 900" role="img" aria-label="Smoked chicken bowl">
  <defs>
    <linearGradient id="table" x1="0" x2="1" y1="0" y2="1">
      <stop offset="0" stop-color="#f4eadb"/>
      <stop offset="1" stop-color="#d9b98d"/>
    </linearGradient>
    <radialGradient id="bowl" cx="48%" cy="42%" r="62%">
      <stop offset="0" stop-color="#fffaf2"/>
      <stop offset="0.7" stop-color="#e8d6bc"/>
      <stop offset="1" stop-color="#b88a60"/>
    </radialGradient>
    <filter id="shadow" x="-20%" y="-20%" width="140%" height="140%">
      <feDropShadow dx="0" dy="24" stdDeviation="24" flood-color="#5a3a24" flood-opacity=".22"/>
    </filter>
  </defs>
  <rect width="1200" height="900" fill="url(#table)"/>
  <path d="M0 0h1200v900H0z" fill="#fff" opacity=".14"/>
  <circle cx="290" cy="180" r="110" fill="#4d8b72" opacity=".11"/>
  <circle cx="1000" cy="720" r="160" fill="#d97856" opacity=".1"/>
  <g filter="url(#shadow)">
    <ellipse cx="600" cy="470" rx="392" ry="272" fill="url(#bowl)"/>
    <ellipse cx="600" cy="430" rx="335" ry="216" fill="#fff6ea"/>
    <ellipse cx="600" cy="434" rx="286" ry="176" fill="#f3dfbf"/>
  </g>
  <g>
    <path d="M438 350c80-55 232-45 316 12 72 49 72 118 1 156-83 45-231 35-310-18-64-42-66-105-7-150z" fill="#6f4a2e"/>
    <path d="M484 357c49-24 139-22 196 4 47 21 62 55 32 78-40 31-143 29-200-1-50-26-63-58-28-81z" fill="#d29b59"/>
    <path d="M380 460c47 31 121 42 191 33 72-10 117-37 117-37s-15 62-96 86c-82 24-176 1-212-33-21-20-22-36 0-49z" fill="#eef0c2"/>
    <path d="M701 377c66 18 116 63 112 104-3 36-49 66-109 79 32-34 40-73 17-111-17-27-42-48-20-72z" fill="#4d8b72"/>
    <path d="M334 410c63-49 154-66 229-49-42 15-71 39-78 72-8 36 12 66 12 66-75 7-148-25-166-62-4-9-3-18 3-27z" fill="#e8a93a"/>
    <circle cx="642" cy="356" r="27" fill="#d97856"/>
    <circle cx="706" cy="431" r="20" fill="#d97856"/>
    <circle cx="520" cy="474" r="18" fill="#d97856"/>
    <path d="M486 552c68 37 187 36 256-3" fill="none" stroke="#7d5637" stroke-width="12" stroke-linecap="round" opacity=".35"/>
  </g>
  <g opacity=".32">
    <path d="M180 690c94-16 174-3 240 40" fill="none" stroke="#4d8b72" stroke-width="10" stroke-linecap="round"/>
    <path d="M780 160c92-22 177-9 256 39" fill="none" stroke="#d97856" stroke-width="10" stroke-linecap="round"/>
  </g>
</svg>
