<svg xmlns="http://www.w3.org/2000/svg" viewBox="0 0 900 1125" role="img" aria-labelledby="title desc">
  <title id="title">Styled food bowl menu photo</title>
  <desc id="desc">A warm editorial-style food bowl image for a sample restaurant menu.</desc>
  <defs>
    <linearGradient id="table" x1="0" x2="1" y1="0" y2="1">
      <stop offset="0" stop-color="#fbf6ee"/>
      <stop offset="0.52" stop-color="#ead6b5"/>
      <stop offset="1" stop-color="#d97856"/>
    </linearGradient>
    <radialGradient id="plate" cx="48%" cy="44%" r="55%">
      <stop offset="0" stop-color="#fffdf8"/>
      <stop offset="0.78" stop-color="#f3eadc"/>
      <stop offset="1" stop-color="#c8bca8"/>
    </radialGradient>
    <filter id="shadow" x="-20%" y="-20%" width="140%" height="140%">
      <feDropShadow dx="0" dy="24" stdDeviation="30" flood-color="#202320" flood-opacity="0.22"/>
    </filter>
  </defs>
  <rect width="900" height="1125" fill="url(#table)"/>
  <circle cx="764" cy="156" r="118" fill="#4d8b72" opacity="0.18"/>
  <circle cx="136" cy="938" r="160" fill="#202320" opacity="0.10"/>
  <g filter="url(#shadow)">
    <ellipse cx="450" cy="572" rx="330" ry="330" fill="url(#plate)"/>
    <ellipse cx="450" cy="572" rx="270" ry="270" fill="#fffaf0"/>
  </g>
  <g>
    <path d="M270 560c58-110 215-156 335-80 65 41 104 103 118 171-54 88-155 143-265 137-117-7-219-75-188-228z" fill="#5f3f2a"/>
    <path d="M305 520c75-68 195-88 294-29 42 25 74 59 95 98-52 28-129 45-205 40-85-5-157-39-184-109z" fill="#d97856"/>
    <path d="M294 654c82 45 215 58 337 15 39-14 71-32 94-52 6 36 1 70-17 100-55 94-246 118-369 47-54-31-78-70-45-110z" fill="#e8a93a"/>
    <circle cx="388" cy="474" r="44" fill="#4d8b72"/>
    <circle cx="508" cy="477" r="35" fill="#4d8b72"/>
    <circle cx="603" cy="552" r="40" fill="#4d8b72"/>
    <path d="M241 461c80 25 175 24 286-5 59-15 101-16 126 1 22 14 31 37 27 68-132 46-265 45-397-3-45-16-59-36-42-61z" fill="#f4efe3"/>
    <path d="M337 670c91 37 189 37 294 0" fill="none" stroke="#fff4d8" stroke-width="32" stroke-linecap="round" opacity="0.82"/>
    <g fill="#202320" opacity="0.16">
      <circle cx="350" cy="562" r="12"/>
      <circle cx="439" cy="532" r="10"/>
      <circle cx="553" cy="591" r="13"/>
      <circle cx="614" cy="661" r="9"/>
      <circle cx="466" cy="704" r="11"/>
    </g>
  </g>
  <g transform="translate(82 78)">
    <rect width="286" height="80" rx="40" fill="#ffffff" opacity="0.88"/>
    <text x="32" y="49" font-family="Arial, sans-serif" font-size="25" font-weight="800" fill="#202320">Fresh Menu Photos</text>
  </g>
  <g transform="translate(556 916)">
    <rect width="240" height="86" rx="28" fill="#202320" opacity="0.9"/>
    <text x="28" y="35" font-family="Arial, sans-serif" font-size="18" font-weight="800" fill="#fbf6ee">Smoked Chicken Bowl</text>
    <text x="28" y="62" font-family="Arial, sans-serif" font-size="18" font-weight="800" fill="#e8a93a">$12</text>
  </g>
</svg>
