<svg xmlns="http://www.w3.org/2000/svg" viewBox="0 0 1200 900" role="img" aria-label="Seasonal lemonade">
  <defs>
    <linearGradient id="counter" x1="0" x2="1" y1="0" y2="1">
      <stop offset="0" stop-color="#f7ead7"/>
      <stop offset="1" stop-color="#b9d1b8"/>
    </linearGradient>
    <linearGradient id="drink" x1="0" x2="0" y1="0" y2="1">
      <stop offset="0" stop-color="#f7cf65"/>
      <stop offset=".55" stop-color="#e9a848"/>
      <stop offset="1" stop-color="#bd6d4d"/>
    </linearGradient>
    <filter id="glass" x="-20%" y="-20%" width="140%" height="140%">
      <feDropShadow dx="0" dy="24" stdDeviation="22" flood-color="#3b4535" flood-opacity=".22"/>
    </filter>
  </defs>
  <rect width="1200" height="900" fill="url(#counter)"/>
  <circle cx="960" cy="220" r="190" fill="#fff7eb" opacity=".52"/>
  <circle cx="230" cy="720" r="170" fill="#d97856" opacity=".12"/>
  <g filter="url(#glass)">
    <path d="M436 238h326l-38 468c-6 64-57 105-125 105h-18c-68 0-119-41-125-105z" fill="#fff" opacity=".5"/>
    <path d="M470 304h258l-31 382c-5 42-37 70-84 70h-47c-47 0-79-28-84-70z" fill="url(#drink)"/>
    <path d="M473 303h254" fill="none" stroke="#fff" stroke-width="24" stroke-linecap="round" opacity=".72"/>
    <path d="M510 382c58 29 119 33 185 11" fill="none" stroke="#fff5c8" stroke-width="18" stroke-linecap="round" opacity=".5"/>
    <path d="M500 612c62 32 130 35 207 9" fill="none" stroke="#783e45" stroke-width="18" stroke-linecap="round" opacity=".22"/>
  </g>
  <g>
    <circle cx="742" cy="254" r="76" fill="#f1c553"/>
    <circle cx="742" cy="254" r="48" fill="#f8e07e"/>
    <path d="M702 254h80M742 214v80M714 226l57 57M771 226l-57 57" stroke="#fff8cc" stroke-width="8" stroke-linecap="round" opacity=".78"/>
  </g>
  <g>
    <path d="M575 219c-22-82-11-145 32-188" fill="none" stroke="#4d8b72" stroke-width="14" stroke-linecap="round"/>
    <path d="M608 114c57-15 107 2 150 49-64 15-114-1-150-49z" fill="#4d8b72"/>
  </g>
  <circle cx="560" cy="526" r="27" fill="#7b3155" opacity=".75"/>
  <circle cx="655" cy="583" r="23" fill="#7b3155" opacity=".68"/>
  <circle cx="599" cy="654" r="19" fill="#7b3155" opacity=".62"/>
</svg>
